{
  "accessors": [
    {
      "bufferView": 2,
      "componentType": 5126,
      "count": 65532,
      "max": [
        4.5323400497436523,
        9.3676795959472656,
        14.402841567993164
      ],
      "min": [
        -2.1740200519561768,
        -0.11288906633853912,
        -2.4132652282714844
      ],
      "type": "VEC3"
    },
    {
      "bufferView": 2,
      "byteOffset": 786384,
      "componentType": 5126,
      "count": 65532,
      "max": [
        1,
        1,
        0.99999916553497314
      ],
      "min": [
        -0.99947798252105713,
        -0.99995779991149902,
        -0.99997317790985107
      ],
      "type": "VEC3"
    },
    {
      "bufferView": 3,
      "componentType": 5126,
      "count": 65532,
      "max": [
        0.99999934434890747,
        0.99999445676803589,
        0.99996662139892578,
        1
      ],
      "min": [
        -0.99996280670166016,
        -0.99999874830245972,
        -0.99999725818634033,
        -1
      ],
      "type": "VEC4"
    },
    {
      "bufferView": 1,
      "componentType": 5126,
      "count": 65532,
      "max": [
        0.99660700559616089,
        0.99993699789047241
      ],
      "min": [
        0.00014000000373926014,
        0.00012700000661425292
      ],
      "type": "VEC2"
    },
    {
      "bufferView": 0,
      "componentType": 5125,
      "count": 357681,
      "max": [
        65531
      ],
      "min": [
        0
      ],
      "type": "SCALAR"
    },
    {
      "bufferView": 2,
      "byteOffset": 1572768,
      "componentType": 5126,
      "count": 65532,
      "max": [
        7.4701199531555176,
        9.3872537612915039,
        16.194005966186523
      ],
      "min": [
        -2.1364200115203857,
        -0.38277634978294373,
        -3.9140381813049316
      ],
      "type": "VEC3"
    },
    {
      "bufferView": 2,
      "byteOffset": 2359152,
      "componentType": 5126,
      "count": 65532,
      "max": [
        0.9999997615814209,
        0.99999904632568359,
        0.99999916553497314
      ],
      "min": [
        -0.99966013431549072,
        -0.99997711181640625,
        -0.9999997615814209
      ],
      "type": "VEC3"
    },
    {
      "bufferView": 3,
      "byteOffset": 1048512,
      "componentType": 5126,
      "count": 65532,
      "max": [
        0.99999803304672241,
        0.9999992847442627,
        0.99995613098144531,
        1
      ],
      "min": [
        -0.99998623132705688,
        -1,
        -0.99999630451202393,
        -1
      ],
      "type": "VEC4"
    },
    {
      "bufferView": 1,
      "byteOffset": 524256,
      "componentType": 5126,
      "count": 65532,
      "max": [
        0.99997800588607788,
        0.99368202686309814
      ],
      "min": [
        0.0010809999657794833,
        0.0003499999875202775
      ],
      "type": "VEC2"
    },
    {
      "bufferView": 0,
      "byteOffset": 1430724,
      "componentType": 5125,
      "count": 329124,
      "max": [
        65531
      ],
      "min": [
        0
      ],
      "type": "SCALAR"
    },
    {
      "bufferView": 2,
      "byteOffset": 3145536,
      "componentType": 5126,
      "count": 65532,
      "max": [
        7.4685897827148438,
        9.3240280151367188,
        16.183609008789062
      ],
      "min": [
        -8.2578296661376953,
        -0.3340345025062561,
        -6.4422764778137207
      ],
      "type": "VEC3"
    },
    {
      "bufferView": 2,
      "byteOffset": 3931920,
      "componentType": 5126,
      "count": 65532,
      "max": [
        1,
        1,
        0.99998176097869873
      ],
      "min": [
        -0.9999842643737793,
        -0.99999308586120605,
        -0.99999916553497314
      ],
      "type": "VEC3"
    },
    {
      "bufferView": 3,
      "byteOffset": 2097024,
      "componentType": 5126,
      "count": 65532,
      "max": [
        0.99999862909317017,
        0.99999970197677612,
        0.99999880790710449,
        1
      ],
      "min": [
        -0.99999988079071045,
        -0.99996823072433472,
        -0.99999630451202393,
        -1
      ],
      "type": "VEC4"
    },
    {
      "bufferView": 1,
      "byteOffset": 1048512,
      "componentType": 5126,
      "count": 65532,
      "max": [
        0.99994301795959473,
        0.99680602550506592
      ],
      "min": [
        0.00012700000661425292,
        0.00021399999968707561
      ],
      "type": "VEC2"
    },
    {
      "bufferView": 0,
      "byteOffset": 2747220,
      "componentType": 5125,
      "count": 333087,
      "max": [
        65531
      ],
      "min": [
        0
      ],
      "type": "SCALAR"
    },
    {
      "bufferView": 2,
      "byteOffset": 4718304,
      "componentType": 5126,
      "count": 25891,
      "max": [
        7.4390997886657715,
        9.220855712890625,
        15.729574203491211
      ],
      "min": [
        -8.7738790512084961,
        -0.32082751393318176,
        -6.5593094825744629
      ],
      "type": "VEC3"
    },
    {
      "bufferView": 2,
      "byteOffset": 5028996,
      "componentType": 5126,
      "count": 25891,
      "max": [
        1,
        0.99999988079071045,
        0.99977636337280273
      ],
      "min": [
        -0.99559628963470459,
        -0.99999308586120605,
        -0.9999992847442627
      ],
      "type": "VEC3"
    },
    {
      "bufferView": 3,
      "byteOffset": 3145536,
      "componentType": 5126,
      "count": 25891,
      "max": [
        0.99999785423278809,
        0.99988317489624023,
        0.99998736381530762,
        1
      ],
      "min": [
        -0.99974721670150757,
        -0.99992251396179199,
        -0.99978142976760864,
        -1
      ],
      "type": "VEC4"
    },
    {
      "bufferView": 1,
      "byteOffset": 1572768,
      "componentType": 5126,
      "count": 25891,
      "max": [
        0.99993902444839478,
        0.99286597967147827
      ],
      "min": [
        4.9999998736893758e-06,
        0.0052899997681379318
      ],
      "type": "VEC2"
    },
    {
      "bufferView": 0,
      "byteOffset": 4079568,
      "componentType": 5125,
      "count": 117213,
      "max": [
        25890
      ],
      "min": [
        0
      ],
      "type": "SCALAR"
    },
    {
      "bufferView": 2,
      "byteOffset": 5339688,
      "componentType": 5126,
      "count": 121,
      "max": [
        18.878551483154297,
        11.122319221496582,
        22.120920181274414
      ],
      "min": [
        5.0154519081115723,
        -4.3044271469116211,
        -8.9231910705566406
      ],
      "type": "VEC3"
    },
    {
      "bufferView": 2,
      "byteOffset": 5341140,
      "componentType": 5126,
      "count": 121,
      "max": [
        0.99827462434768677,
        0,
        0.99757826328277588
      ],
      "min": [
        0.069553062319755554,
        0,
        -0.86988741159439087
      ],
      "type": "VEC3"
    },
    {
      "bufferView": 1,
      "byteOffset": 1779896,
      "componentType": 5126,
      "count": 121,
      "max": [
        0.99990010261535645,
        0.99990010261535645
      ],
      "min": [
        9.9980010418221354e-05,
        9.9980010418221354e-05
      ],
      "type": "VEC2"
    },
    {
      "bufferView": 0,
      "byteOffset": 4548420,
      "componentType": 5125,
      "count": 600,
      "max": [
        120
      ],
      "min": [
        0
      ],
      "type": "SCALAR"
    }
  ],
  "asset": {
    "extras": {
      "author": "FelixMatveev (https://sketchfab.com/FelixMatveev)",
      "license": "CC-BY-4.0 (http://creativecommons.org/licenses/by/4.0/)",
      "source": "https://sketchfab.com/3d-models/eleanor-lord-pray-monument-vladivostok-russia-87ae12e7e137449388fbe82c9bd4ed45",
      "title": "Eleanor Lord Pray monument Vladivostok, Russia"
    },
    "generator": "Sketchfab-8.77.2",
    "version": "2.0"
  },
  "bufferViews": [
    {
      "buffer": 0,
      "byteLength": 4550820,
      "byteOffset": 0,
      "name": "floatBufferViews",
      "target": 34963
    },
    {
      "buffer": 0,
      "byteLength": 1780864,
      "byteOffset": 4550820,
      "byteStride": 8,
      "name": "floatBufferViews",
      "target": 34962
    },
    {
      "buffer": 0,
      "byteLength": 5342592,
      "byteOffset": 6331684,
      "byteStride": 12,
      "name": "floatBufferViews",
      "target": 34962
    },
    {
      "buffer": 0,
      "byteLength": 3559792,
      "byteOffset": 11674276,
      "byteStride": 16,
      "name": "floatBufferViews",
      "target": 34962
    }
  ],
  "buffers": [
    {
      "byteLength": 15234068,
      "uri": "scene.bin"
    }
  ],
  "images": [
    {
      "uri": "textures/prey9_baseColor.jpeg"
    },
    {
      "uri": "textures/prey9_metallicRoughness.png"
    },
    {
      "uri": "textures/prey9_normal.jpeg"
    },
    {
      "uri": "textures/material_baseColor.png"
    },
    {
      "uri": "textures/material_emissive.png"
    }
  ],
  "materials": [
    {
      "doubleSided": true,
      "emissiveFactor": [
        0,
        0,
        0
      ],
      "name": "prey9",
      "normalTexture": {
        "index": 2,
        "scale": 1,
        "texCoord": 0
      },
      "occlusionTexture": {
        "index": 1,
        "strength": 1,
        "texCoord": 0
      },
      "pbrMetallicRoughness": {
        "baseColorFactor": [
          1,
          1,
          1,
          1
        ],
        "baseColorTexture": {
          "index": 0,
          "texCoord": 0
        },
        "metallicFactor": 1,
        "metallicRoughnessTexture": {
          "index": 1,
          "texCoord": 0
        },
        "roughnessFactor": 1
      }
    },
    {
      "alphaCutoff": 0.29355836054210827,
      "alphaMode": "MASK",
      "doubleSided": false,
      "emissiveFactor": [
        0.8075229982549903,
        0.8075229982549903,
        0.8075229982549903
      ],
      "emissiveTexture": {
        "index": 4,
        "texCoord": 0
      },
      "name": "material",
      "pbrMetallicRoughness": {
        "baseColorFactor": [
          1,
          1,
          1,
          1
        ],
        "baseColorTexture": {
          "index": 3,
          "texCoord": 0
        },
        "metallicFactor": 0,
        "roughnessFactor": 1
      }
    }
  ],
  "meshes": [
    {
      "primitives": [
        {
          "attributes": {
            "NORMAL": 1,
            "POSITION": 0,
            "TANGENT": 2,
            "TEXCOORD_0": 3
          },
          "indices": 4,
          "material": 0,
          "mode": 4
        }
      ]
    },
    {
      "primitives": [
        {
          "attributes": {
            "NORMAL": 6,
            "POSITION": 5,
            "TANGENT": 7,
            "TEXCOORD_0": 8
          },
          "indices": 9,
          "material": 0,
          "mode": 4
        }
      ]
    },
    {
      "primitives": [
        {
          "attributes": {
            "NORMAL": 11,
            "POSITION": 10,
            "TANGENT": 12,
            "TEXCOORD_0": 13
          },
          "indices": 14,
          "material": 0,
          "mode": 4
        }
      ]
    },
    {
      "primitives": [
        {
          "attributes": {
            "NORMAL": 16,
            "POSITION": 15,
            "TANGENT": 17,
            "TEXCOORD_0": 18
          },
          "indices": 19,
          "material": 0,
          "mode": 4
        }
      ]
    },
    {
      "primitives": [
        {
          "attributes": {
            "NORMAL": 21,
            "POSITION": 20,
            "TEXCOORD_0": 22
          },
          "indices": 23,
          "material": 1,
          "mode": 4
        }
      ]
    }
  ],
  "nodes": [
    {
      "children": [
        1
      ],
      "name": "RootNode (gltf orientation matrix)",
      "rotation": [
        -0.70710678118654746,
        -0,
        -0,
        0.70710678118654757
      ]
    },
    {
      "children": [
        2
      ],
      "matrix": [
        0.3441842794418335,
        0,
        0,
        0,
        0,
        0.3441842794418335,
        0,
        0,
        0,
        0,
        0.3441842794418335,
        0,
        0,
        0,
        0,
        1
      ],
      "name": "RootNode (model correction matrix)"
    },
    {
      "children": [
        3
      ],
      "name": "root"
    },
    {
      "children": [
        4,
        9
      ],
      "matrix": [
        1,
        0,
        0,
        0,
        0,
        2.2204460492503131e-16,
        1,
        0,
        0,
        -1,
        2.2204460492503131e-16,
        0,
        0,
        0,
        0,
        1
      ],
      "name": "GLTF_SceneRootNode"
    },
    {
      "children": [
        5,
        6,
        7,
        8
      ],
      "name": "prey9_0"
    },
    {
      "mesh": 0,
      "name": ""
    },
    {
      "mesh": 1,
      "name": ""
    },
    {
      "mesh": 2,
      "name": ""
    },
    {
      "mesh": 3,
      "name": ""
    },
    {
      "children": [
        10
      ],
      "matrix": [
        1,
        0,
        0,
        0,
        0,
        1,
        0,
        0,
        0,
        0,
        1,
        0,
        -13.721714019775391,
        3.8786976337432861,
        2.3036026954650879,
        1
      ],
      "name": "Plane_1"
    },
    {
      "mesh": 4,
      "name": ""
    }
  ],
  "samplers": [
    {
      "magFilter": 9729,
      "minFilter": 9987,
      "wrapS": 10497,
      "wrapT": 10497
    }
  ],
  "scene": 0,
  "scenes": [
    {
      "name": "OSG_Scene",
      "nodes": [
        0
      ]
    }
  ],
  "textures": [
    {
      "sampler": 0,
      "source": 0
    },
    {
      "sampler": 0,
      "source": 1
    },
    {
      "sampler": 0,
      "source": 2
    },
    {
      "sampler": 0,
      "source": 3
    },
    {
      "sampler": 0,
      "source": 4
    }
  ]
}

